# xmcd CD database file
#
# Track frame offsets:
#	150
#	22081
#	49460
#	67948
#	88227
#	115715
#
# Disc length: 1885 seconds
#
# Revision: 1
# Processed by: cddbd v1.5.1PL2 Copyright (c) Steve Scherf et al.
# Submitted via: CDex 1.51
#
DISCID=4e075b06
DTITLE=DJazzy Project - Первая Встреча
DYEAR=2003
DGENRE=Jazz
TTITLE0=Тропический романтик
TTITLE1=Не спорьте
TTITLE2=Мой герой
TTITLE3=Bon Voyage
TTITLE4=Шестой день
TTITLE5=Пароль
EXTD=YEAR: 2003
EXTT0=
EXTT1=
EXTT2=
EXTT3=
EXTT4=
EXTT5=
PLAYORDER=
